PathFileType	4	(X/Y/Z)	C:\Users\Biomechanik\SynologyDrive\AlexP\Athlete_03\Athlete_3_22_07_06\sq_80_EMG\marker_experimental.trc																																																																																																																																																																												
DataRate	CameraRate	NumFrames	NumMarkers	Units	OrigDataRate	OrigDataStartFrame	OrigNumFrames																																																																																																																																																																								
200	200	4	58	mm	200	1227	1403																																																																																																																																																																								
Frame#	Time	BL			BR			GLAB			RFHD			LFHD			C7			T6			SPINMOL			SPINM2			SPINM3			T12			BELTOL			BELT2			BELT3			SACROL			SACR2			SACR3			LTHOL			LTH2			LTH3			LSHAOL			LSHA2			LSHA3			LHEE			LTOE			LM5			RTHOL			RTH2			RTH3			RSHAOL			RSHA2			RSHA3			RHEE			RTOE			RM5			STRN			XIPH			LACR			LUAOL			LUA2			LUA3			LLAOL			LLA2			LLA3			LWRU			RACR			RUAOL			RUA3			RLAOL			RLA2			RLA3			RWRU			USERMO0			USERMO1			USERMO2			USERMO3			USERMO4			USERMO5		
		X1	Y1	Z1	X2	Y2	Z2	X3	Y3	Z3	X4	Y4	Z4	X5	Y5	Z5	X6	Y6	Z6	X7	Y7	Z7	X8	Y8	Z8	X9	Y9	Z9	X10	Y10	Z10	X11	Y11	Z11	X12	Y12	Z12	X13	Y13	Z13	X14	Y14	Z14	X15	Y15	Z15	X16	Y16	Z16	X17	Y17	Z17	X18	Y18	Z18	X19	Y19	Z19	X20	Y20	Z20	X21	Y21	Z21	X22	Y22	Z22	X23	Y23	Z23	X24	Y24	Z24	X25	Y25	Z25	X26	Y26	Z26	X27	Y27	Z27	X28	Y28	Z28	X29	Y29	Z29	X30	Y30	Z30	X31	Y31	Z31	X32	Y32	Z32	X33	Y33	Z33	X34	Y34	Z34	X35	Y35	Z35	X36	Y36	Z36	X37	Y37	Z37	X38	Y38	Z38	X39	Y39	Z39	X40	Y40	Z40	X41	Y41	Z41	X42	Y42	Z42	X43	Y43	Z43	X44	Y44	Z44	X45	Y45	Z45	X46	Y46	Z46	X47	Y47	Z47	X48	Y48	Z48	X49	Y49	Z49	X50	Y50	Z50	X51	Y51	Z51	X52	Y52	Z52	X53	Y53	Z53	X54	Y54	Z54	X55	Y55	Z55	X56	Y56	Z56	X57	Y57	Z57	X58	Y58	Z58
																																																																																																																																																																															
1228	6.135	185.2527313	1262.135742	-2280.557617	251.0450592	1258.271484	-59.62995148	552.3930664	1459.00293	-1152.508057	487.6082764	1471.288818	-1078.730713	494.1239319	1471.221313	-1235.496582	310.2181396	1371.827148	-1156.40564	166.5189056	1240.045532	-1162.088501	144.7913208	1211.974731	-1167.24353	113.6612015	1155.52832	-1119.840332	120.9063644	1154.874268	-1169.294312	107.8905411	1099.823364	-1169.225464	71.6236496	1070.678345	-1166.477661	57.8006134	1011.093018	-1115.329834	52.04818344	1011.797424	-1165.139282	39.51133728	937.7129517	-1193.319702	50.63300323	945.7950439	-1144.193115	13.04003048	891.980896	-1153.541748	157.5773926	725.5279541	-1424.69165	122.327179	653.7988281	-1418.119873	167.6080933	665.5803833	-1437.550049	156.7832031	328.2432556	-1527.384277	123.0660934	256.8559875	-1531.113892	169.8022919	269.4224548	-1542.921509	118.3845291	39.83588409	-1509.421265	322.6268616	49.15571976	-1553.543823	264.9503479	23.99259186	-1651.093262	138.0352173	697.0858154	-920.5119019	179.0224915	637.8183594	-886.1644897	133.7541351	636.2863159	-907.8613281	104.6579361	321.1241455	-820.5386963	147.2493896	261.8868408	-789.6334839	102.8199768	259.9567871	-813.0134888	91.6046524	38.22294617	-845.9807739	283.2692261	46.30623245	-765.5023193	215.3887024	35.80236435	-681.1247559	403.3563232	1225.704834	-1170.829224	372.9382019	1072.29187	-1168.476685	281.2868042	1311.638428	-1353.314941	148.677002	1226.366089	-1378.118042	112.2311401	1185.90918	-1340.745972	113.6339111	1183.36438	-1391.120239	97.64595795	1150.441895	-1466.73877	141.3731842	1166.285034	-1512.009521	139.426651	1198.300537	-1473.501099	188.0976257	1241.000488	-1525.362915	298.7573547	1305.98291	-974.8855591	176.618042	1200.971558	-935.9989014	120.6964569	1174.423584	-938.7405396	131.3560486	1162.947266	-857.9725952	176.3756866	1208.765625	-865.5863647	171.0529327	1191.587402	-817.6105347	202.7169037	1230.898315	-798.2714844	0.127437994	0.030398	-0.135730997	0.082067199	0.125396997	-0.079896003	0.038260698	0.086666197	-0.043575399	0.173467994	0.175632998	-0.784084022	0.354279995	2.943310022	-0.345126987	2.774970055	0	0
1229	6.14	185.3860168	1261.554321	-2280.434814	250.8445435	1258.043945	-59.5080719	552.3865356	1459.099487	-1152.385498	487.5385132	1471.386353	-1078.657471	494.165741	1471.21875	-1235.417725	310.2727051	1371.697876	-1156.316284	166.6677551	1240.017944	-1162.008179	144.9326477	1211.974487	-1167.143433	113.8131409	1155.515381	-1119.747192	121.0356369	1154.880737	-1169.204224	108.0009232	1099.792725	-1169.141724	71.73253632	1070.587158	-1166.412598	57.9733429	1010.962891	-1115.291016	52.20909882	1011.68927	-1165.099487	39.73125458	937.619812	-1193.291138	50.85612106	945.6871338	-1144.169922	13.27215672	891.8659058	-1153.533569	157.8466339	725.53479	-1424.759399	122.6105194	653.8012085	-1418.190552	167.877121	665.5906372	-1437.630005	156.9629669	328.2542725	-1527.466919	123.2035217	256.8873901	-1531.17749	169.9495392	269.4198914	-1542.985229	118.3907318	39.84550858	-1509.418701	322.6255188	49.1545639	-1553.554932	264.958374	23.98291779	-1651.109131	138.4919739	697.0772705	-920.5244141	179.4844513	637.7940674	-886.2091064	134.1930389	636.2793579	-907.855896	104.9147186	321.1503906	-820.4661865	147.4696808	261.8709106	-789.5924072	103.0342026	259.966095	-812.9766846	91.61154938	38.23275375	-845.9811401	283.2753296	46.29696655	-765.5003052	215.3836365	35.80389023	-681.1218872	403.5097656	1225.65979	-1170.715698	373.0609741	1072.294678	-1168.363159	281.3419189	1311.484253	-1353.215698	148.862854	1226.035034	-1378.075195	112.4359589	1185.56604	-1340.688477	113.8748245	1182.983521	-1391.057861	97.94298553	1150.000977	-1466.624146	141.650116	1165.894165	-1511.896484	139.6619873	1197.908691	-1473.391846	188.2634888	1240.66687	-1525.250732	298.7987976	1305.860596	-974.7932739	176.7665863	1200.751099	-935.9091797	120.8614197	1174.171509	-938.6698608	131.4834747	1162.66626	-857.9185791	176.4651947	1208.526001	-865.5021362	171.1290894	1191.333984	-817.5264893	202.7427673	1230.650757	-798.1618652	0.127563998	0.0294262	-0.131597996	0.0803736	0.123397999	-0.077948801	0.037811801	0.086421497	-0.043483499	0.175785005	0.177254006	-0.787109017	0.355024993	2.943860054	-0.346028	2.76560998	0	0
1230	6.145	185.5140839	1261.040405	-2280.314697	250.6438751	1257.876587	-59.38537598	552.3809204	1459.208862	-1152.255127	487.4682617	1471.491821	-1078.576904	494.2085266	1471.224976	-1235.331909	310.3354797	1371.575928	-1156.222534	166.8233185	1239.989502	-1161.926758	145.080307	1211.973633	-1167.043701	113.9689102	1155.501953	-1119.656372	121.1710434	1154.886719	-1169.115967	108.1165009	1099.768799	-1169.061646	71.84581757	1070.504883	-1166.354858	58.14342117	1010.842651	-1115.260376	52.36902618	1011.591492	-1165.068115	39.94981384	937.5337524	-1193.277588	51.07648849	945.5846558	-1144.159912	13.49951935	891.7579346	-1153.543457	158.1360321	725.545166	-1424.830322	122.9094315	653.8094482	-1418.270386	168.1654053	665.6036987	-1437.711792	157.1547546	328.2673035	-1527.556152	123.3504639	256.9219055	-1531.249268	170.1071625	269.4188843	-1543.054932	118.3981552	39.85630035	-1509.415039	322.6247864	49.1533165	-1553.564941	264.9647827	23.97307205	-1651.124023	138.9450073	697.0678101	-920.5365601	179.9459534	637.7700195	-886.2548828	134.6303253	636.2713013	-907.8499146	105.1753235	321.1761475	-820.3981323	147.6931458	261.8544312	-789.5540161	103.2520981	259.9762573	-812.9429932	91.62198639	38.24326706	-845.9842529	283.2824097	46.28665543	-765.4992676	215.3815613	35.80445099	-681.121582	403.6687622	1225.618164	-1170.597534	373.1838684	1072.298706	-1168.245117	281.4078674	1311.337158	-1353.114014	149.0586243	1225.706909	-1378.033569	112.6515045	1185.223999	-1340.635742	114.1278534	1182.605225	-1391	98.25202179	1149.568359	-1466.515259	141.9380798	1165.515747	-1511.789063	139.9063873	1197.52771	-1473.285522	188.4371796	1240.348755	-1525.140991	298.8482666	1305.745361	-974.6976318	176.9245453	1200.535522	-935.8152466	121.0361862	1173.923096	-938.5951538	131.6183014	1162.393066	-857.8604736	176.5588379	1208.297119	-865.414917	171.2124176	1191.092041	-817.4405518	202.7762604	1230.418213	-798.0522461	0.127287999	0.0286662	-0.127357006	0.077992201	0.122213997	-0.076092802	0.037082698	0.085623197	-0.0434465	0.177052006	0.179272994	-0.790741026	0.356191993	2.944020033	-0.346947014	2.754849911	0	0
1231	6.15	185.6377106	1260.594116	-2280.197021	250.443924	1257.769531	-59.2619133	552.3771973	1459.328735	-1152.116821	487.3990173	1471.603394	-1078.488525	494.2530518	1471.238037	-1235.238281	310.4057007	1371.461792	-1156.124634	166.9832306	1239.96106	-1161.844238	145.2321014	1211.972778	-1166.944702	114.1262436	1155.489014	-1119.567749	121.3106766	1154.892456	-1169.029663	108.2351761	1099.750732	-1168.985107	71.96135712	1070.430054	-1166.303467	58.30955124	1010.730835	-1115.236938	52.52651215	1011.502441	-1165.044189	40.1656723	937.4530029	-1193.279175	51.29264832	945.4859009	-1144.162964	13.72352123	891.6534424	-1153.570557	158.4448395	725.5587158	-1424.904053	123.2219238	653.8236084	-1418.359131	168.47229	665.6193237	-1437.795166	157.3578491	328.2824402	-1527.651489	123.5061874	256.9596558	-1531.328491	170.2743225	269.4197693	-1543.130249	118.4067841	39.86822128	-1509.410522	322.6246643	49.15202332	-1553.574097	264.9697876	23.96300697	-1651.138062	139.3898163	697.0567627	-920.5496216	180.4014282	637.7456055	-886.302002	135.0614929	636.2614136	-907.8456421	105.4355927	321.2007751	-820.3378296	147.9152679	261.8373108	-789.5195313	103.4698792	259.9863281	-812.9152222	91.63583374	38.25423813	-845.9900513	283.2902832	46.27555084	-765.4990845	215.3823547	35.80381393	-681.1237793	403.8313293	1225.578735	-1170.474731	373.3049316	1072.301392	-1168.122559	281.4846497	1311.197754	-1353.010498	149.2634735	1225.384521	-1377.99353	112.8761597	1184.885986	-1340.588013	114.3912659	1182.232666	-1390.946777	98.57118225	1149.147461	-1466.41272	142.2353973	1165.152466	-1511.687622	140.1587219	1197.160156	-1473.182739	188.6178589	1240.047974	-1525.033691	298.9049683	1305.637451	-974.5982666	177.0886993	1200.327393	-935.7178345	121.2171326	1173.682495	-938.5167236	131.756958	1162.131714	-857.7979736	176.6542816	1208.081909	-865.3248901	171.3004303	1190.864624	-817.3527832	202.8160248	1230.203003	-797.942688	0.126534998	0.028144499	-0.123153001	0.075112097	0.121811002	-0.074359797	0.036050498	0.084408998	-0.043503702	0.177037999	0.181659997	-0.794954002	0.357728988	2.943690062	-0.347934008	2.74255991	0	0
